# xmcd
#
# Track frame offsets: 
#        150
#        19771
#        39376
#
# Disc length: 785 seconds
#
# Revision: 2
# Processed by: cddbd v1.5.2PL0 Copyright (c) Steve Scherf et al.
# Submitted via: ExactAudioCopy v1.0b6
#
DISCID=19030f03
DTITLE=SKE48 - 強き者よ
DYEAR=2010
DGENRE=J-Pop
TTITLE0=強き者よ
TTITLE1=SKE48 Team KⅡ - 強き者よ（チームKⅡ ver.）
TTITLE2=強き者よ（off vocal）
EXTD=YEAR: 2010
EXTT0=
EXTT1=
EXTT2=
PLAYORDER=
